<?xml version="1.0" encoding="iso-8859-1"?>
<!-- Generator: Adobe Illustrator 19.0.0, SVG Export Plug-In . SVG Version: 6.00 Build 0)  -->
<svg version="1.1" id="Layer_1" xmlns="http://www.w3.org/2000/svg" xmlns:xlink="http://www.w3.org/1999/xlink" x="0px" y="0px"
	 viewBox="0 0 512.002 512.002" style="enable-background:new 0 0 512.002 512.002;" xml:space="preserve">
<g>
	<g>
		<path d="M507.994,154.841c-5.636-6.073-15.131-6.423-21.203-0.786l-30.344,28.176c-0.49-0.264-0.967-0.515-1.415-0.739
			c-4.174-2.085-8.987-2.643-13.376,0.254l0.601-1.41c0.96-2.251-0.089-4.855-2.341-5.814c-1.93-0.823-4.108-0.163-5.299,1.457
			c0.154-1.378,0.241-2.776,0.241-4.195c0-20.619-16.715-37.336-37.335-37.336c-20.619,0-37.334,16.715-37.334,37.336
			c0,1.419,0.087,2.818,0.241,4.195c-1.19-1.62-3.368-2.279-5.299-1.457c-2.251,0.959-3.3,3.562-2.341,5.814l0.601,1.41
			c-4.389-2.898-9.203-2.341-13.377-0.255c-3.169,1.583-7.454,4.117-12.022,8.779l-51.605-34.279
			c-6.902-4.585-16.214-2.705-20.799,4.195c-4.584,6.902-2.706,16.214,4.196,20.799c107.006,71.081,101.031,67.135,101.77,67.563
			c-3.61,29.509,0.814,4.268-23.556,130.086c-0.473,2.443,0.171,4.969,1.753,6.888c1.583,1.92,3.941,3.041,6.429,3.041
			c2.192,0,4.683,0,7.413,0l-18.213,92.835c-2.177,11.093,6.306,21.473,17.686,21.473c8.432,0,15.963-5.954,17.647-14.541
			l19.574-99.768c5.992,0,12.075,0,18.021,0l14.755,98.956c1.332,8.934,9.015,15.351,17.784,15.351
			c11.063,0,19.446-9.82,17.829-20.661l-13.963-93.647c1.472,0,2.87,0,4.152,0c2.49,0,4.849-1.113,6.432-3.035
			c1.584-1.922,2.224-4.449,1.75-6.895c-24.367-125.807-19.818-99.528-24.001-133.725l38.201-35.471
			c1.553,0.324,3.112,0.716,4.671,1.227c0.892,0.292,1.871,0.023,2.489-0.683c0.617-0.707,0.751-1.714,0.34-2.558
			c-0.568-1.17-1.146-2.277-1.726-3.346l30.19-28.034C513.279,170.406,513.632,160.913,507.994,154.841z M415.16,220.568
			c-15.81,0-24.182,0-41.561,0l-19.827-13.171c0.119-0.051,0.259-0.088,0.371-0.144c3.393-1.695,5.708-4.676,6.68-8.054l0.645,1.516
			c0.718,1.685,2.356,2.696,4.079,2.696c0.58,0,1.168-0.114,1.734-0.356c2.251-0.959,3.3-3.562,2.341-5.814l-0.552-1.296
			c6.848,8.056,17.049,13.173,28.451,13.173c11.402,0,21.604-5.117,28.451-13.173l-0.552,1.296c-0.96,2.251,0.089,4.855,2.341,5.814
			c0.567,0.242,1.156,0.356,1.734,0.356c1.723,0,3.362-1.011,4.079-2.696l0.645-1.516c0.265,0.923,0.624,1.816,1.087,2.66
			L415.16,220.568z"/>
	</g>
</g>
<g>
	<g>
		<circle cx="119.093" cy="162.94" r="37.429"/>
	</g>
</g>
<g>
	<g>
		<path d="M240.872,125.326c4.985-6.704,3.593-16.179-3.111-21.164c-6.703-4.985-16.179-3.594-21.164,3.111l-78.111,105.022
			c-4.185,0-35.945,0-40.372,0l-71.301-86.773c-5.303-6.452-14.835-7.387-21.29-2.084c-6.454,5.303-7.387,14.836-2.084,21.29
			l75.426,91.794v100.438L35.615,479.443c-2.912,9.593,2.504,19.729,12.096,22.641c9.614,2.916,19.736-2.522,22.641-12.096
			l40.295-132.737h14.059l13.083,129.292c1.009,9.973,9.912,17.241,19.886,16.231c9.973-1.009,17.241-9.913,16.231-19.886
			c-15.757-155.717-14.662-145.287-14.918-146.642V235.422L240.872,125.326z"/>
	</g>
</g>
<g>
	<g>
		<circle cx="295.194" cy="51.785" r="42.654"/>
	</g>
</g>
<g>
</g>
<g>
</g>
<g>
</g>
<g>
</g>
<g>
</g>
<g>
</g>
<g>
</g>
<g>
</g>
<g>
</g>
<g>
</g>
<g>
</g>
<g>
</g>
<g>
</g>
<g>
</g>
<g>
</g>
</svg>
