<?xml version="1.0" encoding="UTF-8" standalone="no"?>
<svg
   xmlns:dc="http://purl.org/dc/elements/1.1/"
   xmlns:cc="http://creativecommons.org/ns#"
   xmlns:rdf="http://www.w3.org/1999/02/22-rdf-syntax-ns#"
   xmlns:svg="http://www.w3.org/2000/svg"
   xmlns="http://www.w3.org/2000/svg"
   xmlns:sodipodi="http://sodipodi.sourceforge.net/DTD/sodipodi-0.dtd"
   xmlns:inkscape="http://www.inkscape.org/namespaces/inkscape"
   width="200"
   height="200"
   viewBox="0 0 100 100"
   version="1.1"
   id="svg4"
   sodipodi:docname="debt.svg"
   inkscape:version="0.92.2 (5c3e80d, 2017-08-06)">
  <metadata
     id="metadata10">
    <rdf:RDF>
      <cc:Work
         rdf:about="">
        <dc:format>image/svg+xml</dc:format>
        <dc:type
           rdf:resource="http://purl.org/dc/dcmitype/StillImage" />
      </cc:Work>
    </rdf:RDF>
  </metadata>
  <defs
     id="defs8" />
  <sodipodi:namedview
     pagecolor="#ffffff"
     bordercolor="#666666"
     borderopacity="1"
     objecttolerance="10"
     gridtolerance="10"
     guidetolerance="10"
     inkscape:pageopacity="0"
     inkscape:pageshadow="2"
     inkscape:window-width="742"
     inkscape:window-height="480"
     id="namedview6"
     showgrid="false"
     inkscape:zoom="1.18"
     inkscape:cx="100"
     inkscape:cy="100"
     inkscape:window-x="0"
     inkscape:window-y="0"
     inkscape:window-maximized="0"
     inkscape:current-layer="svg4" />
  <path
     d="M25.3 54.6c.2-3.1 1.2-6 2.8-8.5h-19C5.6 46.1 5 47.8 5 49v2.8c0 2.9 2.8 2.9 4.1 2.9h16.2zm-12.2 3c-3.5 0-4.1 1.7-4.1 2.9v2.2c0 1.9 1.3 2.9 4.1 2.9h14.8c-1.4-2.4-2.4-5.1-2.6-8H13.1zm69.6-17c-2.9-4.5-10.4-17-19.5-17H43.8s-3.5 0-3.5 3.6v2.2s0 2.9 3.5 2.9h12.7c1.3 0 1.3 2.9-.3 2.9H13.1C9.6 35.1 9 37.3 9 38v2.1c-.1 3.1 3.3 2.9 4.1 2.9h17.4c3.3-3.4 8-5.6 13.3-5.6 10.2 0 18.5 8.2 18.5 18.5 0 10.2-8.3 18.5-18.5 18.5-5.5 0-10.2-2.3-13.6-6H21c-3.5 0-3.5 2.9-3.5 2.9v2.2c0 2.9 3.5 2.9 3.5 2.9h43.7c9.3 0 15.2-3.7 18.1-8h9.4c1.8-5.2 2.9-10.8 2.9-16.7 0-3.9-.5-7.6-1.3-11.2H82.7zm-39 20.9c-1.2 0-3.1-.4-3.1-1.8 0-1.1-.8-1.9-1.9-1.9-1 0-1.8.8-1.8 1.8-.1 2.8 2.4 4.8 4.9 5.4v2c0 1.1.8 1.9 1.9 1.9 1 0 1.8-.8 1.8-1.8V65c2.9-.6 5-2.7 5-5.3 0-1.3-.6-2.6-1.5-3.6-1.3-1.3-3.2-2-5.2-2-1.2 0-3.1-.5-3.1-1.9 0-.9 1.3-1.8 3.1-1.8 1.1 0 3.1.5 3.1 1.8 0 1 .8 1.9 1.8 1.9 1.1 0 1.9-.8 1.9-1.9 0-2.9-2.5-4.6-4.9-5.3v-2.1c0-1-.8-1.9-1.9-1.9-1 0-1.9.8-1.9 1.8v2.1c-2.9.6-5 2.8-5 5.2 0 1.4.5 2.6 1.6 3.6 1.2 1.3 3.2 2 5.2 2 1.1 0 3 .6 3 1.9.1 1-1.2 2-3 2z"
     id="path2"
     style="fill:#6f916f" />
</svg>
