<?xml version="1.0" encoding="iso-8859-1"?>
<!-- Generator: Adobe Illustrator 19.0.0, SVG Export Plug-In . SVG Version: 6.00 Build 0)  -->
<svg version="1.1" id="Layer_1" xmlns="http://www.w3.org/2000/svg" xmlns:xlink="http://www.w3.org/1999/xlink" x="0px" y="0px"
	 viewBox="0 0 512.002 512.002" style="enable-background:new 0 0 512.002 512.002;" xml:space="preserve">
<g>
	<g>
		<path d="M267.549,501.904l-26.653-165.058l17.369-2.805c2.28-0.368,4.321-1.627,5.673-3.499c1.351-1.873,1.904-4.205,1.536-6.484
			L225.156,74.362l25.171-4.065c3.733-0.604,6.652-3.547,7.221-7.286c0.569-3.739-1.339-7.418-4.723-9.105L146.518,0.914
			c-3.343-1.665-7.377-1.015-10.026,1.62L52.267,86.291c-2.682,2.666-3.336,6.758-1.619,10.129c1.502,2.949,4.522,4.754,7.756,4.754
			c0.46,0,0.925-0.037,1.391-0.111l25.171-4.065l40.317,249.694c0.691,4.278,4.388,7.322,8.586,7.322
			c0.461,0,0.929-0.037,1.399-0.113l40.102-6.475c-0.676,4.108-2.291,8.032-4.796,11.502c-4.262,5.904-10.577,9.797-17.779,10.959
			c-4.747,0.767-7.975,5.237-7.208,9.985c0.691,4.277,4.388,7.32,8.586,7.32c0.461,0,0.929-0.037,1.399-0.113
			c21.391-3.454,36.799-21.642,37.545-42.521l30.585-4.938l26.652,165.058c0.691,4.278,4.388,7.322,8.587,7.322
			c0.46,0,0.929-0.037,1.398-0.113C265.089,511.121,268.315,506.651,267.549,501.904z M83.739,79.555l60.602-60.266l76.49,38.129
			L83.739,79.555z M214.292,116.332l-84.431-26.583l78.102-12.611L214.292,116.332z M103.022,99.558l114.376,36.011l7.474,46.286
			l-114.376-36.011L103.022,99.558z M113.602,165.079l114.376,36.012l7.474,46.286l-114.376-36.012L113.602,165.079z
			 M141.089,335.321l-6.329-39.196l84.432,26.584L141.089,335.321z M131.655,276.889l-7.474-46.286l114.376,36.012l7.474,46.286
			L131.655,276.889z"/>
	</g>
</g>
<g>
	<g>
		<path d="M459.941,178.321l-64.201-68.348c-2.558-2.723-6.567-3.511-9.964-1.96l-85.301,38.953
			c-3.44,1.571-5.473,5.183-5.031,8.939c0.441,3.756,3.258,6.797,6.967,7.526l17.952,3.53l-38.169,194.124
			c-0.446,2.266,0.027,4.616,1.315,6.533c1.286,1.917,3.283,3.245,5.549,3.69l11.83,2.326l-25.112,127.714
			c-0.928,4.719,2.146,9.297,6.864,10.224c0.568,0.111,1.133,0.166,1.689,0.166c4.078,0,7.719-2.878,8.536-7.029l25.112-127.714
			l21.346,4.197c0.034,20.892,14.814,39.595,36.075,43.775c0.568,0.112,1.133,0.166,1.689,0.166c4.078,0,7.719-2.878,8.536-7.03
			c0.928-4.718-2.146-9.296-6.864-10.224c-11.775-2.315-20.288-11.929-21.781-23.216l28.591,5.622
			c0.568,0.111,1.133,0.166,1.689,0.166c4.078,0,7.719-2.878,8.536-7.03l38.169-194.123l17.952,3.53
			c0.562,0.11,1.125,0.165,1.682,0.165c3.122,0,6.064-1.685,7.618-4.492C463.045,185.189,462.529,181.077,459.941,178.321z
			 M380.383,371.516l-51.887-10.202l57.007-15.837L380.383,371.516z M389.263,326.357l-87.257,24.24l6.35-32.292l87.257-24.24
			L389.263,326.357z M399.372,274.945l-87.257,24.239l6.35-32.292l87.256-24.239L399.372,274.945z M409.48,223.533l-87.256,24.239
			l6.35-32.292l87.256-24.239L409.48,223.533z M332.333,196.36l5.12-26.039l51.887,10.202L332.333,196.36z M332.33,151.564
			l54.995-25.113l41.391,44.065L332.33,151.564z"/>
	</g>
</g>
<g>
</g>
<g>
</g>
<g>
</g>
<g>
</g>
<g>
</g>
<g>
</g>
<g>
</g>
<g>
</g>
<g>
</g>
<g>
</g>
<g>
</g>
<g>
</g>
<g>
</g>
<g>
</g>
<g>
</g>
</svg>
