<?xml version="1.0" encoding="UTF-8" standalone="no"?>
<!-- Generator: Adobe Illustrator 16.0.4, SVG Export Plug-In . SVG Version: 6.00 Build 0)  -->

<svg
   xmlns:dc="http://purl.org/dc/elements/1.1/"
   xmlns:cc="http://creativecommons.org/ns#"
   xmlns:rdf="http://www.w3.org/1999/02/22-rdf-syntax-ns#"
   xmlns:svg="http://www.w3.org/2000/svg"
   xmlns="http://www.w3.org/2000/svg"
   xmlns:sodipodi="http://sodipodi.sourceforge.net/DTD/sodipodi-0.dtd"
   xmlns:inkscape="http://www.inkscape.org/namespaces/inkscape"
   version="1.1"
   id="Capa_1"
   x="0px"
   y="0px"
   width="512px"
   height="512px"
   viewBox="0 0 512 512"
   enable-background="new 0 0 512 512"
   xml:space="preserve"
   sodipodi:docname="gifts.svg"
   inkscape:version="0.92.2 (5c3e80d, 2017-08-06)"><metadata
     id="metadata9"><rdf:RDF><cc:Work
         rdf:about=""><dc:format>image/svg+xml</dc:format><dc:type
           rdf:resource="http://purl.org/dc/dcmitype/StillImage" /></cc:Work></rdf:RDF></metadata><defs
     id="defs7" /><sodipodi:namedview
     pagecolor="#ffffff"
     bordercolor="#666666"
     borderopacity="1"
     objecttolerance="10"
     gridtolerance="10"
     guidetolerance="10"
     inkscape:pageopacity="0"
     inkscape:pageshadow="2"
     inkscape:window-width="742"
     inkscape:window-height="480"
     id="namedview5"
     showgrid="false"
     inkscape:zoom="0.4609375"
     inkscape:cx="256"
     inkscape:cy="256"
     inkscape:window-x="0"
     inkscape:window-y="0"
     inkscape:window-maximized="0"
     inkscape:current-layer="Capa_1" /><path
     d="M385.758,160c9.063-6.44,17.756-13.608,25.723-21.574c16.7-16.701,27.872-37.25,31.455-57.861  c3.93-22.593-1.836-43.57-15.814-57.55c-11.15-11.149-26.255-17.043-43.682-17.043c-24.816,0-50.962,11.912-71.73,32.681  c-33.238,33.238-52.613,79.119-63.038,111.861c-7.72-32.901-23.103-77.322-53.009-107.229C179.615,27.239,159.105,19,139.739,19  c-15.827,0-30.89,5.502-42.13,16.743c-24.993,24.994-21.616,68.893,7.543,98.052c10.396,10.396,22.549,19.031,35.36,26.206H32v128  h32v224h384V288h32V160H385.758z M337.163,64.109c13.862-13.862,31.161-22.137,46.274-22.137c5.351,0,12.854,1.127,18.226,6.499  c13.015,13.014,5.706,43.154-15.64,64.499c-21.974,21.973-51.53,37.084-77.217,47.03h-25.336  C292.755,131.226,309.5,91.772,337.163,64.109z M116.967,80.445c-0.351-4.56-0.025-13.124,6.098-19.247  C128.187,56.076,134.959,55,139.739,55l0,0c10.629,0,21.734,5.008,30.466,13.74c16.936,16.936,30.883,43.886,40.334,77.938  c0.255,0.92,0.504,1.835,0.748,2.743c-0.908-0.243-1.823-0.492-2.743-0.748c-34.052-9.452-61.001-23.399-77.937-40.335  C122.693,100.425,117.722,90.258,116.967,80.445z M224,480H96V272h128V480z M224,256H64v-64h160V256z M416,480H288V272h128V480z   M448,256H288v-64h160V256z"
     id="path2"
     style="fill:#ffcc00" /></svg>