<?xml version="1.0" encoding="UTF-8" standalone="no"?>
<!-- Generator: Adobe Illustrator 16.0.0, SVG Export Plug-In . SVG Version: 6.00 Build 0)  -->

<svg
   xmlns:dc="http://purl.org/dc/elements/1.1/"
   xmlns:cc="http://creativecommons.org/ns#"
   xmlns:rdf="http://www.w3.org/1999/02/22-rdf-syntax-ns#"
   xmlns:svg="http://www.w3.org/2000/svg"
   xmlns="http://www.w3.org/2000/svg"
   xmlns:sodipodi="http://sodipodi.sourceforge.net/DTD/sodipodi-0.dtd"
   xmlns:inkscape="http://www.inkscape.org/namespaces/inkscape"
   version="1.1"
   id="Capa_1"
   x="0px"
   y="0px"
   width="611.998px"
   height="611.998px"
   viewBox="0 0 611.998 611.998"
   style="enable-background:new 0 0 611.998 611.998;"
   xml:space="preserve"
   sodipodi:docname="insurance.svg"
   inkscape:version="0.92.2 (5c3e80d, 2017-08-06)"><metadata
     id="metadata41"><rdf:RDF><cc:Work
         rdf:about=""><dc:format>image/svg+xml</dc:format><dc:type
           rdf:resource="http://purl.org/dc/dcmitype/StillImage" /></cc:Work></rdf:RDF></metadata><defs
     id="defs39" /><sodipodi:namedview
     pagecolor="#ffffff"
     bordercolor="#666666"
     borderopacity="1"
     objecttolerance="10"
     gridtolerance="10"
     guidetolerance="10"
     inkscape:pageopacity="0"
     inkscape:pageshadow="2"
     inkscape:window-width="1751"
     inkscape:window-height="480"
     id="namedview37"
     showgrid="false"
     inkscape:zoom="0.38562218"
     inkscape:cx="305.99899"
     inkscape:cy="305.99899"
     inkscape:window-x="0"
     inkscape:window-y="0"
     inkscape:window-maximized="0"
     inkscape:current-layer="Capa_1" /><g
     id="g4"
     style="fill:#d35f5f"><path
       d="m 611.998,327.252 c -14.873,-10.688 -37.447,-17.51 -62.734,-17.51 -39.152,0 -71.82,16.348 -79.42,38.09 h -3.262 c -7.414,-21.883 -40.182,-38.375 -79.504,-38.375 -25.328,0 -47.891,6.865 -62.756,17.584 v 184.033 c 0,45.803 -37.262,83.062 -83.063,83.062 -45.802,0 -83.063,-37.26 -83.063,-83.062 0,-10.121 8.202,-18.322 18.323,-18.322 10.121,0 18.323,8.201 18.323,18.322 0,25.594 20.822,46.416 46.417,46.416 25.594,0 46.416,-20.822 46.416,-46.416 V 327.34 c -14.869,-10.725 -37.443,-17.598 -62.783,-17.598 -39.153,0 -71.821,16.348 -79.42,38.09 h -3.261 c -7.415,-21.883 -40.183,-38.375 -79.504,-38.375 -25.271,0 -47.834,6.812 -62.706,17.488 C 11.951,196.459 134.73,92.737 287.676,85.013 V 71.316 c 0,-10.122 8.202,-18.323 18.323,-18.323 10.121,0 18.323,8.202 18.323,18.323 V 85.015 C 477.375,92.756 600.211,196.63 611.998,327.252 Z M 44.264,52.993 c 0,0 -26.561,52.432 -26.561,67.101 0,14.668 11.892,26.561 26.561,26.561 14.669,0 26.561,-11.892 26.561,-26.561 0,-14.67 -26.561,-67.101 -26.561,-67.101 z m 75.197,-35.132 c 0,0 -19.925,39.333 -19.925,50.338 0,11.005 8.921,19.925 19.925,19.925 11.004,0 19.925,-8.921 19.925,-19.925 0,-11.004 -19.925,-50.338 -19.925,-50.338 z"
       id="path2"
       style="fill:#d35f5f"
       inkscape:connector-curvature="0" /></g><g
     id="g6" /><g
     id="g8" /><g
     id="g10" /><g
     id="g12" /><g
     id="g14" /><g
     id="g16" /><g
     id="g18" /><g
     id="g20" /><g
     id="g22" /><g
     id="g24" /><g
     id="g26" /><g
     id="g28" /><g
     id="g30" /><g
     id="g32" /><g
     id="g34" /></svg>