<?xml version="1.0" encoding="UTF-8" standalone="no"?>
<!-- Generator: Adobe Illustrator 18.0.0, SVG Export Plug-In . SVG Version: 6.00 Build 0)  -->

<svg
   xmlns:dc="http://purl.org/dc/elements/1.1/"
   xmlns:cc="http://creativecommons.org/ns#"
   xmlns:rdf="http://www.w3.org/1999/02/22-rdf-syntax-ns#"
   xmlns:svg="http://www.w3.org/2000/svg"
   xmlns="http://www.w3.org/2000/svg"
   xmlns:sodipodi="http://sodipodi.sourceforge.net/DTD/sodipodi-0.dtd"
   xmlns:inkscape="http://www.inkscape.org/namespaces/inkscape"
   version="1.1"
   id="Capa_1"
   x="0px"
   y="0px"
   viewBox="0 0 489.576 489.576"
   style="enable-background:new 0 0 489.576 489.576;"
   xml:space="preserve"
   sodipodi:docname="pets.svg"
   inkscape:version="0.92.2 (5c3e80d, 2017-08-06)"><metadata
     id="metadata43"><rdf:RDF><cc:Work
         rdf:about=""><dc:format>image/svg+xml</dc:format><dc:type
           rdf:resource="http://purl.org/dc/dcmitype/StillImage" /></cc:Work></rdf:RDF></metadata><defs
     id="defs41" /><sodipodi:namedview
     pagecolor="#ffffff"
     bordercolor="#666666"
     borderopacity="1"
     objecttolerance="10"
     gridtolerance="10"
     guidetolerance="10"
     inkscape:pageopacity="0"
     inkscape:pageshadow="2"
     inkscape:window-width="742"
     inkscape:window-height="480"
     id="namedview39"
     showgrid="false"
     inkscape:zoom="0.48204978"
     inkscape:cx="244.78799"
     inkscape:cy="244.78799"
     inkscape:window-x="0"
     inkscape:window-y="0"
     inkscape:window-maximized="0"
     inkscape:current-layer="Capa_1" /><g
     id="XMLID_312_"
     style="fill:#916f7c"><path
       id="XMLID_317_"
       d="M330.973,255.208c-22.181-34.606-60.458-55.538-101.556-55.538c-41.093,0-79.37,20.931-101.55,55.538   l-61.063,95.255c-16.723,26.092-14.388,60.059,5.737,83.614c20.151,23.556,53.343,31.143,81.728,18.668l0.019-0.017   c47.878-21.044,102.388-21.044,150.28,0.017c28.368,12.475,61.56,4.897,81.713-18.659c20.142-23.555,22.477-57.531,5.754-83.623   L330.973,255.208z"
       style="fill:#916f7c" /><path
       id="XMLID_316_"
       d="M78.688,246.023c28.07-10.786,40.537-46.255,27.859-79.189c-12.686-32.927-45.717-50.89-73.756-40.087   C4.743,137.532-7.706,172.994,4.949,205.935C17.641,238.852,50.674,256.824,78.688,246.023z"
       style="fill:#916f7c" /><path
       id="XMLID_315_"
       d="M188.936,186.381c36.563,0,66.215-34.815,66.215-77.741c0-42.944-29.652-77.758-66.215-77.758   c-36.553,0-66.206,34.813-66.206,77.758C122.73,151.566,152.383,186.381,188.936,186.381z"
       style="fill:#916f7c" /><path
       id="XMLID_314_"
       d="M312.391,209.488c34.697,11.53,73.822-12.162,87.363-52.898c13.55-40.742-3.621-83.134-38.297-94.663   c-34.699-11.529-73.823,12.162-87.354,52.905C260.561,155.575,277.715,197.959,312.391,209.488z"
       style="fill:#916f7c" /><path
       id="XMLID_313_"
       d="M469.653,197.798c-24.182-17.866-60.784-9.377-81.789,18.996c-20.98,28.381-18.406,65.876,5.729,83.742   c24.128,17.876,60.773,9.379,81.79-18.988C496.362,253.168,493.781,215.666,469.653,197.798z"
       style="fill:#916f7c" /></g><g
     id="g8" /><g
     id="g10" /><g
     id="g12" /><g
     id="g14" /><g
     id="g16" /><g
     id="g18" /><g
     id="g20" /><g
     id="g22" /><g
     id="g24" /><g
     id="g26" /><g
     id="g28" /><g
     id="g30" /><g
     id="g32" /><g
     id="g34" /><g
     id="g36" /></svg>