<?xml version="1.0" encoding="UTF-8" standalone="no"?>
<!-- Generator: Adobe Illustrator 19.0.0, SVG Export Plug-In . SVG Version: 6.00 Build 0)  -->

<svg
   xmlns:dc="http://purl.org/dc/elements/1.1/"
   xmlns:cc="http://creativecommons.org/ns#"
   xmlns:rdf="http://www.w3.org/1999/02/22-rdf-syntax-ns#"
   xmlns:svg="http://www.w3.org/2000/svg"
   xmlns="http://www.w3.org/2000/svg"
   xmlns:sodipodi="http://sodipodi.sourceforge.net/DTD/sodipodi-0.dtd"
   xmlns:inkscape="http://www.inkscape.org/namespaces/inkscape"
   version="1.1"
   id="Layer_1"
   x="0px"
   y="0px"
   viewBox="0 0 480 480"
   style="enable-background:new 0 0 480 480;"
   xml:space="preserve"
   sodipodi:docname="technology.svg"
   inkscape:version="0.92.2 (5c3e80d, 2017-08-06)"><metadata
     id="metadata115"><rdf:RDF><cc:Work
         rdf:about=""><dc:format>image/svg+xml</dc:format><dc:type
           rdf:resource="http://purl.org/dc/dcmitype/StillImage" /></cc:Work></rdf:RDF></metadata><defs
     id="defs113" /><sodipodi:namedview
     pagecolor="#ffffff"
     bordercolor="#666666"
     borderopacity="1"
     objecttolerance="10"
     gridtolerance="10"
     guidetolerance="10"
     inkscape:pageopacity="0"
     inkscape:pageshadow="2"
     inkscape:window-width="1033"
     inkscape:window-height="480"
     id="namedview111"
     showgrid="false"
     inkscape:zoom="0.49166667"
     inkscape:cx="240"
     inkscape:cy="240"
     inkscape:window-x="2061"
     inkscape:window-y="121"
     inkscape:window-maximized="0"
     inkscape:current-layer="Layer_1" /><g
     id="g6"
     style="fill:#aa0044"><g
       id="g4"
       style="fill:#aa0044"><path
         d="M456,232V56c0-22.056-17.944-40-40-40H64c-22.056,0-40,17.944-40,40v120c-13.232,0-24,10.768-24,24v240    c0,13.232,10.768,24,24,24h176c13.232,0,24-10.768,24-24h67.048c7.544,0,14.496-3.44,19.072-9.432s6.064-13.608,4.08-20.88    L298.472,352H344v88c0,13.232,10.768,24,24,24h88c13.232,0,24-10.768,24-24V256C480,242.768,469.232,232,456,232z M208,440    c0,4.408-3.592,8-8,8H24c-4.408,0-8-3.592-8-8v-16h192V440z M208,408H16V232h192V408z M208,216H16v-16c0-4.408,3.592-8,8-8h176    c4.408,0,8,3.592,8,8V216z M298.768,413.896c0.664,2.424,0.168,4.96-1.36,6.96s-3.84,3.144-6.36,3.144H224v-16h73.16    L298.768,413.896z M224,392v-40h57.888l10.912,40H224z M344,336H224v-48h120V336z M344,256v16H224v-72c0-13.232-10.768-24-24-24    H40V56c0-13.232,10.768-24,24-24h352c13.232,0,24,10.768,24,24v176h-72C354.768,232,344,242.768,344,256z M464,440    c0,4.408-3.592,8-8,8h-88c-4.408,0-8-3.592-8-8v-16h104V440z M464,408H360V288h104V408z M464,272H360v-16c0-4.408,3.592-8,8-8h88    c4.408,0,8,3.592,8,8V272z"
         id="path2"
         style="fill:#aa0044" /></g></g><g
     id="g12"
     style="fill:#aa0044"><g
       id="g10"
       style="fill:#aa0044"><rect
         x="41.372"
         y="327.994"
         transform="matrix(0.7071 -0.7071 0.7071 0.7071 -218.8385 143.6649)"
         width="45.256"
         height="16"
         id="rect8"
         style="fill:#aa0044" /></g></g><g
     id="g18"
     style="fill:#aa0044"><g
       id="g16"
       style="fill:#aa0044"><rect
         x="60.114"
         y="319.995"
         transform="matrix(0.7071 -0.7071 0.7071 0.7071 -194.4378 186.5751)"
         width="135.767"
         height="16"
         id="rect14"
         style="fill:#aa0044" /></g></g><g
     id="g24"
     style="fill:#aa0044"><g
       id="g22"
       style="fill:#aa0044"><rect
         x="86.054"
         y="272.005"
         transform="matrix(0.7071 -0.7071 0.7071 0.7071 -162.8477 166.8601)"
         width="67.879"
         height="16"
         id="rect20"
         style="fill:#aa0044" /></g></g><g
     id="g30"
     style="fill:#aa0044"><g
       id="g28"
       style="fill:#aa0044"><rect
         x="375.705"
         y="324.008"
         transform="matrix(0.7071 -0.7071 0.7071 0.7071 -116.4408 382.9028)"
         width="56.559"
         height="16"
         id="rect26"
         style="fill:#aa0044" /></g></g><g
     id="g36"
     style="fill:#aa0044"><g
       id="g34"
       style="fill:#aa0044"><rect
         x="391.702"
         y="356.042"
         transform="matrix(0.7071 -0.7071 0.7071 0.7071 -134.4066 403.5971)"
         width="56.559"
         height="16"
         id="rect32"
         style="fill:#aa0044" /></g></g><g
     id="g42"
     style="fill:#aa0044"><g
       id="g40"
       style="fill:#aa0044"><rect
         x="206.052"
         y="128.002"
         transform="matrix(0.7071 -0.7071 0.7071 0.7071 -25.876 209.5337)"
         width="67.879"
         height="16"
         id="rect38"
         style="fill:#aa0044" /></g></g><g
     id="g48"
     style="fill:#aa0044"><g
       id="g46"
       style="fill:#aa0044"><rect
         x="278.057"
         y="112.001"
         transform="matrix(0.7071 -0.7071 0.7071 0.7071 6.5281 255.7627)"
         width="67.879"
         height="16"
         id="rect44"
         style="fill:#aa0044" /></g></g><g
     id="g54"
     style="fill:#aa0044"><g
       id="g52"
       style="fill:#aa0044"><rect
         x="233.364"
         y="168.01"
         transform="matrix(0.7071 -0.7071 0.7071 0.7071 -49.4797 232.5655)"
         width="45.256"
         height="16"
         id="rect50"
         style="fill:#aa0044" /></g></g><g
     id="g60"
     style="fill:#aa0044"><g
       id="g58"
       style="fill:#aa0044"><rect
         x="273.302"
         y="72.062"
         transform="matrix(0.7071 -0.7071 0.7071 0.7071 30.0796 232.7427)"
         width="45.368"
         height="16"
         id="rect56"
         style="fill:#aa0044" /></g></g><g
     id="g66"
     style="fill:#aa0044"><g
       id="g64"
       style="fill:#aa0044"><rect
         x="56"
         y="48"
         width="16"
         height="16"
         id="rect62"
         style="fill:#aa0044" /></g></g><g
     id="g72"
     style="fill:#aa0044"><g
       id="g70"
       style="fill:#aa0044"><rect
         x="88"
         y="48"
         width="16"
         height="16"
         id="rect68"
         style="fill:#aa0044" /></g></g><g
     id="g78"
     style="fill:#aa0044"><g
       id="g76"
       style="fill:#aa0044"><rect
         x="120"
         y="48"
         width="16"
         height="16"
         id="rect74"
         style="fill:#aa0044" /></g></g><g
     id="g80" /><g
     id="g82" /><g
     id="g84" /><g
     id="g86" /><g
     id="g88" /><g
     id="g90" /><g
     id="g92" /><g
     id="g94" /><g
     id="g96" /><g
     id="g98" /><g
     id="g100" /><g
     id="g102" /><g
     id="g104" /><g
     id="g106" /><g
     id="g108" /></svg>